<svg id="Layer_1" enable-background="new 0 0 256 256" height="512" viewBox="0 0 256 256" width="512" xmlns="http://www.w3.org/2000/svg"><g><g><path d="m222.193 216.116h-188.386c-6.6 0-12-5.4-12-12v-163.777c0-6.6 5.4-12 12-12h188.386c6.6 0 12 5.4 12 12v163.777c0 6.6-5.4 12-12 12z" fill="#63bce7"/><g><path d="m39.866 204.116v-163.777c0-6.6 5.4-12 12-12h-18.059c-6.6 0-12 5.4-12 12v163.777c0 6.6 5.4 12 12 12h18.059c-6.6 0-12-5.4-12-12z" fill="#6377e7"/></g><g><path d="m216.134 204.116v-163.777c0-6.6-5.4-12-12-12h18.059c6.6 0 12 5.4 12 12v163.777c0 6.6-5.4 12-12 12h-18.059c6.6 0 12-5.4 12-12z" fill="#67dceb"/></g><g><path d="m234.193 40.339c0-6.6-5.4-12-12-12h-188.386c-6.6 0-12 5.4-12 12v27.597h212.386z" fill="#f46275"/></g><g><path d="m51.866 28.339h-18.059c-6.6 0-12 5.4-12 12v27.596h18.059v-27.596c0-6.6 5.4-12 12-12z" fill="#f43075"/></g><g><path d="m204.134 28.339h18.059c6.6 0 12 5.4 12 12v27.596h-18.059v-27.596c0-6.6-5.4-12-12-12z" fill="#f48875"/></g><g><g fill="#f8af23"><circle cx="46.732" cy="48.137" r="8.28"/><circle cx="72.112" cy="48.137" r="8.28"/><circle cx="97.492" cy="48.137" r="8.28"/></g><path d="m213.923 51.72h-44.25c-1.994 0-3.625-1.631-3.625-3.625 0-1.994 1.631-3.625 3.625-3.625h44.25c1.994 0 3.625 1.631 3.625 3.625 0 1.994-1.631 3.625-3.625 3.625z" fill="#9e9e9e"/></g></g><g><g><path d="m55.114 163.736h22.392v41.166h-22.392z" fill="#f8af23"/><path d="m95.055 130.187h22.392v74.715h-22.392z" fill="#f46275"/><path d="m134.996 163.736h22.392v41.166h-22.392z" fill="#f8af23"/><path d="m174.937 130.187h22.392v74.715h-22.392z" fill="#f46275"/></g><g fill="#3f3679"><path d="m27.7 226.161h-18.172c-.829 0-1.5.672-1.5 1.5s.671 1.5 1.5 1.5h18.172c.829 0 1.5-.672 1.5-1.5s-.671-1.5-1.5-1.5z"/><path d="m246.472 226.161h-18.172c-.829 0-1.5.672-1.5 1.5s.671 1.5 1.5 1.5h18.172c.829 0 1.5-.672 1.5-1.5s-.671-1.5-1.5-1.5z"/><path d="m213.789 226.161h-171.578c-.829 0-1.5.672-1.5 1.5s.671 1.5 1.5 1.5h171.577c.829 0 1.5-.672 1.5-1.5s-.671-1.5-1.499-1.5z"/><path d="m247.972 216.115c0-.828-.671-1.5-1.5-1.5h-15.812c3.066-2.477 5.033-6.261 5.033-10.5v-136.179-27.597c0-7.444-6.056-13.5-13.5-13.5h-188.386c-7.444 0-13.5 6.056-13.5 13.5v27.597 136.18c0 4.239 1.968 8.023 5.033 10.5h-15.812c-.829 0-1.5.672-1.5 1.5s.671 1.5 1.5 1.5h24.279 188.386 24.279c.829-.001 1.5-.673 1.5-1.501zm-224.665-175.776c0-5.79 4.71-10.5 10.5-10.5h188.386c5.79 0 10.5 4.71 10.5 10.5v26.097h-209.386zm10.5 174.276c-5.79 0-10.5-4.71-10.5-10.5v-120.414h53.443c.829 0 1.5-.672 1.5-1.5s-.671-1.5-1.5-1.5h-53.443v-11.265h209.386v134.68c0 5.79-4.71 10.5-10.5 10.5h-188.386z"/><path d="m46.732 38.356c-5.393 0-9.78 4.388-9.78 9.78s4.387 9.78 9.78 9.78 9.78-4.388 9.78-9.78-4.387-9.78-9.78-9.78zm0 16.561c-3.739 0-6.78-3.042-6.78-6.78s3.042-6.78 6.78-6.78 6.78 3.042 6.78 6.78-3.041 6.78-6.78 6.78z"/><path d="m72.112 38.356c-5.393 0-9.78 4.388-9.78 9.78s4.387 9.78 9.78 9.78 9.781-4.388 9.781-9.78-4.388-9.78-9.781-9.78zm0 16.561c-3.739 0-6.78-3.042-6.78-6.78s3.042-6.78 6.78-6.78 6.781 3.042 6.781 6.78-3.042 6.78-6.781 6.78z"/><path d="m97.492 38.356c-5.393 0-9.78 4.388-9.78 9.78s4.387 9.78 9.78 9.78 9.78-4.388 9.78-9.78-4.387-9.78-9.78-9.78zm0 16.561c-3.739 0-6.78-3.042-6.78-6.78s3.042-6.78 6.78-6.78 6.78 3.042 6.78 6.78-3.042 6.78-6.78 6.78z"/><path d="m213.923 42.971h-44.25c-2.826 0-5.125 2.299-5.125 5.125s2.299 5.125 5.125 5.125h44.25c2.826 0 5.125-2.299 5.125-5.125s-2.299-5.125-5.125-5.125zm0 7.25h-44.25c-1.172 0-2.125-.953-2.125-2.125s.953-2.125 2.125-2.125h44.25c1.172 0 2.125.953 2.125 2.125s-.953 2.125-2.125 2.125z"/><path d="m87.75 83.701h6.75c.829 0 1.5-.672 1.5-1.5s-.671-1.5-1.5-1.5h-6.75c-.829 0-1.5.672-1.5 1.5s.671 1.5 1.5 1.5z"/><path d="m77.506 162.235h-22.392c-.829 0-1.5.672-1.5 1.5v41.167c0 .828.671 1.5 1.5 1.5h22.392c.829 0 1.5-.672 1.5-1.5v-41.167c0-.828-.672-1.5-1.5-1.5zm-1.5 41.167h-19.392v-38.167h19.392z"/><path d="m117.447 128.688h-22.392c-.829 0-1.5.672-1.5 1.5v74.715c0 .828.671 1.5 1.5 1.5h22.392c.829 0 1.5-.672 1.5-1.5v-74.715c0-.829-.672-1.5-1.5-1.5zm-1.5 74.714h-19.392v-71.715h19.392z"/><path d="m157.388 162.235h-22.392c-.829 0-1.5.672-1.5 1.5v41.167c0 .828.671 1.5 1.5 1.5h22.392c.829 0 1.5-.672 1.5-1.5v-41.167c0-.828-.672-1.5-1.5-1.5zm-1.5 41.167h-19.392v-38.167h19.392z"/><path d="m197.329 128.688h-22.392c-.829 0-1.5.672-1.5 1.5v74.715c0 .828.671 1.5 1.5 1.5h22.392c.829 0 1.5-.672 1.5-1.5v-74.715c0-.829-.672-1.5-1.5-1.5zm-1.5 74.714h-19.392v-71.715h19.392z"/><path d="m194.833 81.141c-.586-.586-1.535-.586-2.121 0s-.586 1.535 0 2.121l4.553 4.554h-17.237c-.49 0-.949.239-1.23.642l-32.705 46.832-38.685-46.928c-.569-.691-1.745-.691-2.314 0l-39.941 48.452c-.527.64-.436 1.585.203 2.111.279.23.617.343.953.343.433 0 .862-.187 1.158-.546l38.784-47.048 38.784 47.048c.298.362.757.577 1.217.545.468-.019.901-.256 1.17-.641l33.388-47.811h16.455l-4.553 4.553c-.586.586-.586 1.535 0 2.121.293.293.677.439 1.061.439s.768-.146 1.061-.439l7.114-7.113c.281-.281.439-.663.439-1.061s-.158-.779-.439-1.061z"/></g></g></g></svg>