<svg id="Layer_1" enable-background="new 0 0 256 256" height="512" viewBox="0 0 256 256" width="512" xmlns="http://www.w3.org/2000/svg"><g><path d="m39.762 76.862h176.477v121.028h-176.477z" fill="#63bce7"/><g><path d="m39.762 76.862h18.059v121.028h-18.059z" fill="#6377e7"/></g><g><path d="m198.18 76.862h18.059v121.028h-18.059z" fill="#67dceb"/></g><path d="m191.044 55.783h25.194v21.079h-25.194z" fill="#f8af23"/><path d="m64.956 22.727h126.088v54.134h-126.088z" fill="#63bce7"/><g><path d="m64.956 22.727h18.059v54.135h-18.059z" fill="#6377e7"/></g><g><path d="m172.986 22.727h18.059v54.135h-18.059z" fill="#67dceb"/></g><path d="m25.9 197.89h204.2v11.919h-204.2z" fill="#9e9e9e"/><path d="m18.25 209.809h219.5v11.919h-219.5z" fill="#9e9e9e"/><g><path d="m25.9 197.89h18.059v11.919h-18.059z" fill="#707070"/></g><g><path d="m212.041 197.89h18.059v11.919h-18.059z" fill="#cecece"/></g><g><path d="m18.25 209.809h18.059v11.918h-18.059z" fill="#707070"/></g><g><path d="m219.692 209.809h18.059v11.918h-18.059z" fill="#cecece"/></g><path d="m52.581 100.878h-6.029c-3.75 0-6.79-3.04-6.79-6.79v-17.226h19.608v17.227c0 3.749-3.04 6.789-6.789 6.789z" fill="#f46275"/><g><path d="m57.82 76.862h-18.058v17.227c0 3.75 3.04 6.789 6.789 6.789h6.029c2.614 0 4.88-1.48 6.015-3.646-.493-.94-.775-2.009-.775-3.144z" fill="#f43075"/></g><g fill="#f46275"><path d="m72.189 100.878h-6.029c-3.75 0-6.79-3.04-6.79-6.79v-17.227h19.609v17.227c0 3.75-3.04 6.79-6.79 6.79z"/><path d="m91.798 100.878h-6.029c-3.75 0-6.79-3.04-6.79-6.79v-17.226h19.608v17.227c0 3.749-3.04 6.789-6.789 6.789z"/><path d="m111.406 100.878h-6.029c-3.75 0-6.79-3.04-6.79-6.79v-17.226h19.608v17.227c.001 3.749-3.039 6.789-6.789 6.789z"/><path d="m131.015 100.878h-6.029c-3.75 0-6.79-3.04-6.79-6.79v-17.226h19.608v17.227c0 3.749-3.04 6.789-6.789 6.789z"/><path d="m150.623 100.878h-6.029c-3.75 0-6.79-3.04-6.79-6.79v-17.226h19.609v17.227c0 3.749-3.04 6.789-6.79 6.789z"/><path d="m170.232 100.878h-6.029c-3.75 0-6.79-3.04-6.79-6.79v-17.226h19.609v17.227c-.001 3.749-3.041 6.789-6.79 6.789z"/><path d="m189.84 100.878h-6.029c-3.75 0-6.79-3.04-6.79-6.79v-17.226h19.608v17.227c.001 3.749-3.039 6.789-6.789 6.789z"/><path d="m209.449 100.878h-6.029c-3.75 0-6.79-3.04-6.79-6.79v-17.226h19.609v17.227c-.001 3.749-3.041 6.789-6.79 6.789z"/></g><path d="m39.762 55.783h25.194v21.079h-25.194z" fill="#f8af23"/><g><path d="m39.762 55.783h18.059v21.079h-18.059z" fill="#f87023"/></g><g><path d="m198.18 55.783h18.059v21.079h-18.059z" fill="#f8d323"/></g><g><path d="m140.733 33.28c2.683 2.028 4.517 4.651 5.505 7.875.301.982-.456 1.979-1.483 1.979h-7.249c-.514 0-1.016-.243-1.279-.685-.658-1.101-1.565-2.003-2.715-2.705-1.38-.838-3.043-1.257-4.979-1.257-3.025 0-5.453 1.016-7.28 3.052-1.827 2.032-2.743 4.784-2.743 8.255 0 3.772.961 6.661 2.884 8.679 1.923 2.014 4.656 3.02 8.2 3.02 2.278 0 4.273-.624 5.991-1.872 1.1-.802 1.993-1.822 2.679-3.059.568-1.024-.182-2.289-1.353-2.289h-8.244c-.849 0-1.537-.688-1.537-1.537v-3.809c0-.849.688-1.537 1.537-1.537h17.025c.849 0 1.537.688 1.537 1.537v7.652c0 .177-.027.354-.084.522-.751 2.217-1.917 4.278-3.501 6.183-1.64 1.982-3.74 3.585-6.296 4.815-2.556 1.235-5.476 1.85-8.761 1.85-3.995 0-7.485-.852-10.469-2.547-2.984-1.699-5.289-4.077-6.916-7.139-1.622-3.061-2.433-6.551-2.433-10.469s.811-7.408 2.433-10.469c1.626-3.057 3.923-5.44 6.888-7.139 2.966-1.695 6.428-2.547 10.383-2.547 4.967.001 9.053 1.217 12.26 3.641z" fill="#f8af23"/></g><g><path d="m152.853 138.435c0-14.104-11.748-25.464-25.993-24.827-12.664.566-22.984 10.781-23.675 23.439-.266 4.865.863 9.431 3.032 13.362l15.515 30.909c2.588 5.156 9.948 5.156 12.536 0l15.51-30.899c1.96-3.555 3.075-7.637 3.075-11.984z" fill="#f8af23"/><circle cx="127.876" cy="138.307" fill="#63bce7" r="16.525"/></g><g><path d="m198.18 76.862h18.059v17.227c0 3.75-3.04 6.789-6.789 6.789h-6.029c-2.614 0-4.88-1.48-6.015-3.646.493-.94.775-2.009.775-3.144v-17.226z" fill="#f48875"/></g><g fill="#3f3679"><path d="m117.378 68.707c3.205 1.819 6.977 2.742 11.21 2.742 3.5 0 6.667-.673 9.411-1.998 2.744-1.321 5.032-3.074 6.799-5.208 1.692-2.035 2.961-4.275 3.769-6.662.108-.32.163-.657.163-1.002v-7.652c0-1.675-1.362-3.038-3.037-3.038h-17.025c-1.675 0-3.037 1.363-3.037 3.038v3.809c0 1.675 1.362 3.037 3.037 3.037l8.286.062c-.585 1.053-1.321 1.896-2.25 2.573-1.468 1.066-3.139 1.585-5.108 1.585-3.146 0-5.474-.836-7.114-2.556-1.639-1.719-2.47-4.291-2.47-7.644 0-3.072.793-5.512 2.358-7.253 1.542-1.719 3.559-2.554 6.164-2.554 1.651 0 3.064.35 4.198 1.037.95.58 1.672 1.298 2.208 2.194.521.873 1.506 1.415 2.567 1.415h7.248c.962 0 1.88-.464 2.454-1.24.577-.779.746-1.756.464-2.678-1.078-3.517-3.108-6.421-6.035-8.632-3.463-2.617-7.892-3.944-13.164-3.944-4.197 0-7.941.924-11.129 2.745-3.198 1.833-5.71 4.436-7.467 7.738-1.73 3.265-2.607 7.023-2.607 11.171s.877 7.907 2.607 11.173c1.753 3.302 4.275 5.905 7.5 7.742zm-4.851-28.678c1.486-2.793 3.608-4.994 6.308-6.54 2.728-1.56 5.97-2.35 9.639-2.35 4.604 0 8.426 1.123 11.355 3.337 2.446 1.85 4.074 4.178 4.926 7.157l-7.24.046c-.781-1.307-1.864-2.389-3.224-3.218-1.612-.979-3.55-1.475-5.758-1.475-3.458 0-6.283 1.194-8.396 3.549-2.075 2.308-3.127 5.423-3.127 9.258 0 4.149 1.109 7.417 3.299 9.714 2.207 2.312 5.331 3.485 9.285 3.485 2.59 0 4.901-.727 6.874-2.16 1.272-.928 2.318-2.12 3.108-3.544.525-.949.51-2.076-.044-3.015-.554-.94-1.534-1.502-2.622-1.502l-8.281-.037.037-3.847 17.062.038-.005 7.693c-.689 2.034-1.777 3.954-3.235 5.707-1.491 1.802-3.439 3.289-5.793 4.422-2.336 1.128-5.064 1.7-8.108 1.7-3.708 0-6.981-.791-9.728-2.351-2.721-1.549-4.852-3.749-6.332-6.537-1.498-2.828-2.258-6.114-2.258-9.768.002-3.649.761-6.936 2.258-9.762z"/><path d="m126.793 112.11c-13.35.596-24.378 11.514-25.105 24.854-.27 4.964.841 9.863 3.188 14.117l15.516 30.908c1.453 2.896 4.368 4.694 7.607 4.694h.001c3.239 0 6.155-1.799 7.609-4.694l15.482-30.848c2.133-3.868 3.261-8.262 3.261-12.707 0-7.263-2.892-14.027-8.142-19.049-5.247-5.016-12.143-7.609-19.417-7.275zm21.645 37.635-15.51 30.899c-.955 1.903-2.798 3.04-4.928 3.04s-3.972-1.137-4.927-3.04l-15.543-30.96c-2.103-3.812-3.087-8.154-2.847-12.556.645-11.821 10.415-21.494 22.244-22.022.362-.016.723-.023 1.083-.023 6.046 0 11.738 2.275 16.127 6.473 4.652 4.449 7.215 10.444 7.215 16.88.001 3.939-.998 7.833-2.914 11.309z"/><path d="m127.876 120.282c-9.938 0-18.024 8.086-18.024 18.024s8.086 18.024 18.024 18.024 18.024-8.086 18.024-18.024-8.086-18.024-18.024-18.024zm0 33.049c-8.284 0-15.024-6.74-15.024-15.024s6.74-15.024 15.024-15.024 15.024 6.74 15.024 15.024-6.74 15.024-15.024 15.024z"/><path d="m27.7 231.772h-18.172c-.828 0-1.5.672-1.5 1.5s.672 1.5 1.5 1.5h18.172c.828 0 1.5-.672 1.5-1.5s-.672-1.5-1.5-1.5z"/><path d="m246.472 231.772h-18.172c-.828 0-1.5.672-1.5 1.5s.672 1.5 1.5 1.5h18.172c.828 0 1.5-.672 1.5-1.5s-.672-1.5-1.5-1.5z"/><path d="m213.788 231.772h-171.576c-.828 0-1.5.672-1.5 1.5s.672 1.5 1.5 1.5h171.576c.828 0 1.5-.672 1.5-1.5s-.672-1.5-1.5-1.5z"/><path d="m9.528 223.228h8.722 219.5 8.722c.828 0 1.5-.672 1.5-1.5s-.672-1.5-1.5-1.5h-7.222v-10.419c0-.828-.672-1.5-1.5-1.5h-6.15v-10.419c0-.828-.672-1.5-1.5-1.5h-12.361v-102.302-15.727h13.188c.828 0 1.5-.672 1.5-1.5s-.672-1.5-1.5-1.5h-13.188v-19.578c0-.828-.672-1.5-1.5-1.5h-23.694v-31.555c0-.828-.672-1.5-1.5-1.5h-126.089c-.828 0-1.5.672-1.5 1.5v31.556h-23.694c-.828 0-1.5.672-1.5 1.5v19.578h-13.189c-.828 0-1.5.672-1.5 1.5s.672 1.5 1.5 1.5h13.188v15.727 102.301h-12.361c-.828 0-1.5.672-1.5 1.5v10.419h-6.15c-.828 0-1.5.672-1.5 1.5v10.419h-7.222c-.828 0-1.5.672-1.5 1.5s.672 1.5 1.5 1.5zm185.602-129.14c0 2.917-2.373 5.29-5.29 5.29h-6.029c-2.916 0-5.289-2.373-5.289-5.29v-15.727h12.522 4.086zm-19.609 0c0 2.917-2.373 5.29-5.29 5.29h-6.029c-2.916 0-5.289-2.373-5.289-5.29v-15.727h16.608zm-19.608 0c0 2.917-2.373 5.29-5.29 5.29h-6.029c-2.916 0-5.289-2.373-5.289-5.29v-15.727h16.608zm-19.608 0c0 2.917-2.373 5.29-5.29 5.29h-6.029c-2.917 0-5.29-2.373-5.29-5.29v-15.727h16.609zm-19.61 0c0 2.917-2.373 5.29-5.289 5.29h-6.029c-2.917 0-5.29-2.373-5.29-5.29v-15.727h16.608zm-19.608 0c0 2.917-2.373 5.29-5.289 5.29h-6.029c-2.917 0-5.29-2.373-5.29-5.29v-15.727h16.608zm-19.608 0c0 2.917-2.373 5.29-5.289 5.29h-6.03c-2.917 0-5.29-2.373-5.29-5.29v-15.727h4.086 12.522v15.727zm-19.609 0c0 2.917-2.373 5.29-5.289 5.29h-6.03c-2.916 0-5.289-2.373-5.289-5.29v-15.727h16.608zm140.26-15.727h16.608v15.727c0 2.917-2.373 5.29-5.289 5.29h-6.03c-2.916 0-5.289-2.373-5.289-5.29zm16.608-21.078v18.078h-18.108-4.086v-18.078zm-148.282-33.055h123.088v31.556 19.578h-12.522-19.608-19.608-19.609-19.61-19.608-12.523v-19.579zm-25.194 33.055h22.194v18.078h-4.086-18.108zm0 43.182c1.436 1.194 3.28 1.913 5.289 1.913h6.03c2.807 0 5.289-1.406 6.789-3.548 1.5 2.142 3.982 3.548 6.79 3.548h6.029c2.807 0 5.289-1.406 6.789-3.548 1.5 2.142 3.982 3.548 6.79 3.548h6.029c2.807 0 5.289-1.406 6.789-3.548 1.5 2.142 3.982 3.548 6.79 3.548h6.029c2.807 0 5.289-1.406 6.789-3.548 1.5 2.142 3.982 3.548 6.79 3.548h6.029c2.808 0 5.29-1.406 6.79-3.548 1.5 2.142 3.982 3.548 6.789 3.548h6.029c2.808 0 5.29-1.406 6.79-3.548 1.5 2.142 3.982 3.548 6.789 3.548h6.029c2.808 0 5.29-1.406 6.79-3.548 1.5 2.142 3.982 3.548 6.789 3.548h6.029c2.808 0 5.29-1.406 6.79-3.548 1.5 2.142 3.982 3.548 6.789 3.548h6.03c2.009 0 3.853-.719 5.289-1.913v95.925h-173.473zm-13.862 98.925h12.361 176.477 12.362v8.919h-201.2zm-7.65 11.919h6.15 204.2 6.15v8.919h-216.5z"/></g></g></svg>